<?xml version="1.0" encoding="UTF-8"?>
<svg width="24px" height="24px" viewBox="0 0 24 24" version="1.1" xmlns="http://www.w3.org/2000/svg" xmlns:xlink="http://www.w3.org/1999/xlink">
    <!-- Generator: sketchtool 59.1 (101010) - https://sketch.com -->
    <title>16E31A07-7933-4E67-AA35-9D2F6BFBE8C3</title>
    <desc>Created with sketchtool.</desc>
    <g id="Symbols" stroke="none" stroke-width="1" fill="none" fill-rule="evenodd">
        <g id="module/menu/menu-02-dark" transform="translate(-1728.000000, -38.000000)" fill="#FFFFFF" fill-rule="nonzero">
            <g id="menu">
                <g id="module/phone-module/menu/phone" transform="translate(1712.000000, 26.000000)">
                    <g id="icons/phone/phone-color-icons/phone/phone-white" transform="translate(16.000000, 12.000000)">
                        <g id="telephone">
                            <path d="M22.7870409,3.12715789 L19.649076,0 L13.1323041,6.50596491 L15.6586667,9.11508772 C15.2352749,9.86671345 14.3166316,11.3064795 12.7510175,12.8720468 C11.1852164,14.4378947 9.73492398,15.3670175 8.97614035,15.7971462 L6.41819883,13.2718129 L0.00318128655,19.648655 L3.12402339,22.790269 C4.31695906,23.9832047 6.13211696,24.2923509 7.64079532,23.5596257 C9.94301754,22.4414971 13.4174971,20.3783392 16.8963743,16.899462 C20.3751579,13.4206784 22.438269,9.94615205 23.5564912,7.64392982 C23.8214269,7.09843275 23.9501287,6.51293567 23.9501287,5.93122807 C23.9501287,4.90404678 23.5486784,3.88874854 22.7870409,3.12715789 Z M21.8744795,6.82690058 C20.8189474,9.00014035 18.8690994,12.2822924 15.5741287,15.5772632 C12.2790643,18.8723743 8.99695906,20.8221287 6.82381287,21.877614 C6.03153216,22.2624094 5.07597661,22.0978246 4.44837427,21.4702222 L2.64711111,19.6569357 L6.42283041,15.9039064 L8.60196491,18.0552047 L9.18498246,17.7955556 C9.2797193,17.7533567 11.5345965,16.7330526 14.0733567,14.1942924 C16.6138012,11.653848 17.6129123,9.41805848 17.6541754,9.32407018 L17.9069942,8.7488655 L15.7567251,6.52818713 L19.650386,2.64093567 L21.4657778,4.4500117 C22.0947836,5.07995322 22.2591345,6.03504094 21.8744795,6.82690058 Z" id="Shape"></path>
                        </g>
                    </g>
                </g>
            </g>
        </g>
    </g>
</svg>